<?xml version="1.0" encoding="UTF-8" standalone="no"?>
<!-- Created with Inkscape (http://www.inkscape.org/) -->

<svg
   xmlns:dc="http://purl.org/dc/elements/1.1/"
   xmlns:cc="http://creativecommons.org/ns#"
   xmlns:rdf="http://www.w3.org/1999/02/22-rdf-syntax-ns#"
   xmlns:svg="http://www.w3.org/2000/svg"
   xmlns="http://www.w3.org/2000/svg"
   xmlns:sodipodi="http://sodipodi.sourceforge.net/DTD/sodipodi-0.dtd"
   xmlns:inkscape="http://www.inkscape.org/namespaces/inkscape"
   width="113.19269mm"
   height="27.781248mm"
   viewBox="0 0 113.19269 27.781248"
   version="1.1"
   id="svg8"
   inkscape:version="0.92.2 (5c3e80d, 2017-08-06)"
   sodipodi:docname="cppcmb_logo.svg">
  <defs
     id="defs2" />
  <sodipodi:namedview
     id="base"
     pagecolor="#ffffff"
     bordercolor="#666666"
     borderopacity="1.0"
     inkscape:pageopacity="0.0"
     inkscape:pageshadow="2"
     inkscape:zoom="1.4"
     inkscape:cx="229.41305"
     inkscape:cy="65.658608"
     inkscape:document-units="mm"
     inkscape:current-layer="layer1"
     showgrid="false"
     inkscape:window-width="1920"
     inkscape:window-height="1017"
     inkscape:window-x="1912"
     inkscape:window-y="-8"
     inkscape:window-maximized="1"
     fit-margin-top="0"
     fit-margin-left="0"
     fit-margin-right="0"
     fit-margin-bottom="0" />
  <metadata
     id="metadata5">
    <rdf:RDF>
      <cc:Work
         rdf:about="">
        <dc:format>image/svg+xml</dc:format>
        <dc:type
           rdf:resource="http://purl.org/dc/dcmitype/StillImage" />
        <dc:title></dc:title>
      </cc:Work>
    </rdf:RDF>
  </metadata>
  <g
     inkscape:label="1. réteg"
     inkscape:groupmode="layer"
     id="layer1"
     transform="translate(-26.149146,-75.377131)">
    <path
       id="path3770"
       style="fill:#7f2aff;stroke-width:0.26458332"
       d="m 47.274636,92.48002 c 0.686449,-0.621227 0.93866,-2.096252 0.556454,-3.254348 -0.367232,-1.112725 -1.473452,-1.677708 -3.284904,-1.677708 h -1.199123 v 2.808948 2.808948 l 1.704815,-0.108554 c 1.13965,-0.07257 1.87652,-0.263945 2.222758,-0.577286 z m -7.63174,1.385773 v -9.292587 l 4.034896,0.114976 c 4.298483,0.122487 5.801019,0.502351 6.904323,1.745522 1.58611,1.787183 1.58611,6.020658 0,7.774512 -0.965494,1.067604 -2.488804,1.609195 -4.915241,1.747544 l -2.319811,0.132269 v 3.535176 3.535175 h -1.852084 -1.852083 z"
       inkscape:connector-curvature="0" />
    <path
       id="path3766"
       style="fill:#7f2aff;stroke-width:0.26458332"
       d="m 61.562134,92.48002 c 0.686448,-0.621227 0.93866,-2.096252 0.556456,-3.254348 -0.367234,-1.112725 -1.473454,-1.677708 -3.284905,-1.677708 h -1.199124 v 2.808948 2.808948 l 1.704817,-0.108554 c 1.13965,-0.07257 1.87652,-0.263945 2.222756,-0.577286 z m -7.631739,1.385773 v -9.292587 l 4.034896,0.114976 c 4.298484,0.122487 5.801018,0.502351 6.904323,1.745522 1.586111,1.787183 1.586111,6.020658 0,7.774512 -0.965494,1.067604 -2.488803,1.609195 -4.915242,1.747544 l -2.319811,0.132269 v 3.535176 3.535175 h -1.852083 -1.852083 z"
       inkscape:connector-curvature="0" />
    <path
       style="fill:#8800aa;stroke-width:0.26458332"
       d="m 69.10188,97.19107 c -0.08967,-0.233679 0.878708,-2.631317 2.244106,-5.55625 l 2.401842,-5.145189 -2.401842,-5.145189 c -1.365398,-2.924933 -2.333776,-5.322571 -2.244106,-5.55625 0.119719,-0.311977 0.562729,-0.411061 1.837888,-0.411061 h 1.680149 l 2.597129,5.556714 2.597126,5.556715 -2.309442,4.960473 c -3.071987,6.598359 -2.733482,6.151098 -4.655407,6.151098 -1.193377,0 -1.629029,-0.102481 -1.747443,-0.411061 z"
       id="path3764"
       inkscape:connector-curvature="0" />
    <path
       style="fill:#aa00d4;stroke-width:0.26458332"
       d="m 74.927592,97.20378 c -0.09605,-0.250316 0.820502,-2.529798 2.239227,-5.568964 l 2.401842,-5.145189 -2.401842,-5.145189 c -1.418725,-3.039167 -2.335281,-5.318648 -2.239227,-5.568964 0.129992,-0.338752 0.49508,-0.407953 1.81969,-0.344915 l 1.65707,0.07886 1.512803,3.108854 1.5128,3.108854 h 6.305637 c 4.551603,0 6.393952,0.08832 6.623134,0.3175 0.174625,0.174625 0.3175,0.889 0.3175,1.5875 v 1.27 h -5.820833 c -3.201458,0 -5.820833,0.05393 -5.820833,0.119842 0,0.06591 0.138173,0.423101 0.307054,0.79375 0.230598,0.50611 0.232011,0.838607 0.0057,1.335366 l -0.301379,0.661459 h 5.815161 5.81516 v 1.27 c 0,0.6985 -0.142875,1.412875 -0.3175,1.5875 -0.229018,0.229018 -2.058799,0.3175 -6.565847,0.3175 h -6.248384 l -1.570091,3.241145 -1.57009,3.241146 -1.65707,0.07886 c -1.32461,0.06304 -1.689698,-0.0062 -1.81969,-0.344915 z"
       id="path3762"
       inkscape:connector-curvature="0" />
    <path
       id="path3760"
       style="fill:#5500d4;stroke-width:0.26458332"
       d="m 102.6137,96.044194 c -3.156424,-1.121758 -4.762475,-4.165416 -4.762475,-9.0254 0,-6.458587 3.069785,-9.932537 8.341945,-9.440215 0.89426,0.08351 1.94299,0.296297 2.33052,0.472867 0.67184,0.306111 0.7046,0.413225 0.7046,2.30395 0,1.866756 -0.0271,1.959131 -0.46302,1.576936 -2.25228,-1.974798 -5.15219,-1.567376 -6.46923,0.908895 -0.52762,0.992018 -0.60359,1.517832 -0.60359,4.177567 0,2.659734 0.076,3.185548 0.60359,4.177567 1.31704,2.47627 4.21695,2.883693 6.46923,0.908895 0.43602,-0.382302 0.46302,-0.287487 0.46302,1.625954 0,1.972322 -0.0213,2.040153 -0.72761,2.312188 -1.44351,0.556012 -4.3236,0.556401 -5.88698,7.94e-4 z"
       inkscape:connector-curvature="0" />
    <path
       id="path3758"
       style="fill:#4400aa;stroke-width:0.26458332"
       d="m 30.911646,95.779615 c -3.156431,-1.121759 -4.7625,-4.165416 -4.7625,-9.025401 0,-6.458586 3.069801,-9.932537 8.341967,-9.440214 0.894256,0.08351 1.942989,0.296297 2.330518,0.472867 0.671841,0.306111 0.704598,0.413224 0.704598,2.303949 0,1.866757 -0.02712,1.959131 -0.46302,1.576936 -2.252281,-1.974798 -5.152185,-1.567375 -6.469226,0.908895 -0.527619,0.992019 -0.60359,1.517833 -0.60359,4.177567 0,2.659735 0.07597,3.185549 0.60359,4.177567 1.317041,2.476271 4.216945,2.883693 6.469226,0.908895 0.43602,-0.382302 0.46302,-0.287486 0.46302,1.625955 0,1.972322 -0.02134,2.040152 -0.727604,2.312188 -1.443517,0.556012 -4.323604,0.556401 -5.886979,7.94e-4 z"
       inkscape:connector-curvature="0" />
    <path
       id="path3756"
       style="fill:#7f2aff;stroke-width:0.26458332"
       d="m 112.40329,90.590673 v -5.688542 h 1.19062 c 1.01424,0 1.19063,0.0784 1.19063,0.529167 0,0.689986 0.15527,0.668185 1.1395,-0.159991 0.68083,-0.572875 0.9997,-0.664923 1.88987,-0.545527 0.70723,0.09486 1.27312,0.378794 1.66657,0.836203 0.32765,0.380915 0.59572,0.565121 0.59572,0.409346 0,-0.443416 1.6399,-1.331697 2.46054,-1.332792 1.05831,-0.0014 2.14055,0.632619 2.56127,1.500522 0.2488,0.513247 0.39854,2.218974 0.47789,5.443801 l 0.11556,4.696354 h -1.48471 -1.48471 V 92.29307 c 0,-4.111288 -0.18566,-5.009689 -1.03525,-5.009689 -1.00577,0 -1.18708,0.685976 -1.30089,4.922037 l -0.10945,4.073796 h -1.25858 -1.25857 l -0.10946,-4.073796 c -0.11381,-4.236061 -0.29512,-4.922037 -1.30089,-4.922037 -0.84959,0 -1.03525,0.898401 -1.03525,5.009689 v 3.986144 h -1.4552 -1.45521 z"
       inkscape:connector-curvature="0" />
    <path
       id="path3710"
       style="fill:#7f2aff;stroke-width:0.26458332"
       d="m 134.74011,93.262111 c 1.05274,-0.439865 1.59987,-1.74039 1.33226,-3.166831 -0.26015,-1.386774 -0.93821,-1.845414 -2.91427,-1.97124 l -1.70481,-0.108555 v 2.808948 2.808948 h 1.19912 c 0.65952,0 1.59898,-0.167071 2.0877,-0.37127 z m -6.46182,-5.97873 v -8.995833 h 1.5875 1.5875 v 3.535175 3.535176 l 2.32382,0.132499 c 3.36663,0.191956 4.72571,1.071747 5.37762,3.481169 0.3845,1.421082 0.15068,3.90981 -0.46632,4.963397 -1.06836,1.824316 -2.73973,2.34425 -7.53582,2.34425 h -2.8743 z"
       inkscape:connector-curvature="0" />
  </g>
</svg>
